<svg xmlns="http://www.w3.org/2000/svg" viewBox="0 0 16 16" width="30px" height="30px"><path fill="#4e7ab5" d="M16,2.536c-0.583,0.259-1.185,0.431-1.842,0.512l-0.006-0.011c0.678-0.406,1.161-1.033,1.406-1.8 c-0.634,0.376-1.337,0.649-2.085,0.797c-0.599-0.638-1.452-1.037-2.396-1.037c-1.813,0-3.283,1.47-3.283,3.283 c0,0.257,0.029,0.508,0.085,0.748C5.151,4.89,2.733,3.583,1.113,1.597C0.831,2.082,0.669,2.646,0.669,3.248 c0,1.139,0.579,2.143,1.46,2.732C1.591,5.962,1.085,5.815,0.643,5.569c0,0.014,0,0.027,0,0.041c0,1.591,1.131,2.917,2.633,3.219 C3.001,8.904,2.711,8.944,2.411,8.944c-0.211,0-0.417-0.021-0.617-0.059c0.418,1.304,1.63,2.253,3.067,2.28 c-1.123,0.881-2.539,1.405-4.077,1.405c-0.265,0-0.526-0.015-0.783-0.046C1.453,13.456,3.178,14,5.032,14 c6.038,0,9.339-5.002,9.339-9.34c0-0.142-0.003-0.284-0.009-0.425C15.003,3.772,15.56,3.194,16,2.536z"/></svg>